HIERARCHY
ROOT Hips
{
  OFFSET 7.69185 40.1751 -12.3806
  CHANNELS 6 Xposition Yposition Zposition Zrotation Xrotation Yrotation
  JOINT Spine
  {
    OFFSET 12.2926 0 0
    CHANNELS 6 Xposition Yposition Zposition Zrotation Xrotation Yrotation
    JOINT Spine1
    {
      OFFSET 19.4953 -0.0133253 -1.05669e-05
      CHANNELS 6 Xposition Yposition Zposition Zrotation Xrotation Yrotation
      JOINT Spine2
      {
        OFFSET 20.5878 -0.00090307 0
        CHANNELS 6 Xposition Yposition Zposition Zrotation Xrotation Yrotation
        JOINT LeftShoulder
        {
          OFFSET 25.3216 -12.3262 14.3928
          CHANNELS 6 Xposition Yposition Zposition Zrotation Xrotation Yrotation
          JOINT LeftArm
          {
            OFFSET 29.1658 -1.14981e-05 -0.0117109
            CHANNELS 6 Xposition Yposition Zposition Zrotation Xrotation Yrotation
            JOINT LeftForeArm
            {
              OFFSET 34.2728 0.00186694 -0.00045957
              CHANNELS 6 Xposition Yposition Zposition Zrotation Xrotation Yrotation
              JOINT LeftHand
              {
                OFFSET 27.0039 0.0005098 0.00139064
                CHANNELS 6 Xposition Yposition Zposition Zrotation Xrotation Yrotation
                End Site
                {
                  OFFSET 0 0 0
                }
              }
            }
          }
        }
        JOINT Neck
        {
          OFFSET 33.3146 -4.47578 6.45077e-05
          CHANNELS 6 Xposition Yposition Zposition Zrotation Xrotation Yrotation
          JOINT Head
          {
            OFFSET 25.2279 0 7.11367e-05
            CHANNELS 6 Xposition Yposition Zposition Zrotation Xrotation Yrotation
            End Site
            {
              OFFSET 0 0 0
            }
          }
        }
        JOINT RightShoulder
        {
          OFFSET 25.3216 -12.3265 -14.3925
          CHANNELS 6 Xposition Yposition Zposition Zrotation Xrotation Yrotation
          JOINT RightArm
          {
            OFFSET 29.1709 0.000285289 0.00120856
            CHANNELS 6 Xposition Yposition Zposition Zrotation Xrotation Yrotation
            JOINT RightForeArm
            {
              OFFSET 34.2723 0.000157042 0
              CHANNELS 6 Xposition Yposition Zposition Zrotation Xrotation Yrotation
              JOINT RightHand
              {
                OFFSET 27.0066 -0.00358254 0.000647111
                CHANNELS 6 Xposition Yposition Zposition Zrotation Xrotation Yrotation
                End Site
                {
                  OFFSET 0 0 0
                }
              }
            }
          }
        }
      }
    }
  }
  JOINT LeftUpLeg
  {
    OFFSET -1.76553 0.414318 32.1765
    CHANNELS 6 Xposition Yposition Zposition Zrotation Xrotation Yrotation
    JOINT LeftLeg
    {
      OFFSET 28.0781 0.000257312 0
      CHANNELS 6 Xposition Yposition Zposition Zrotation Xrotation Yrotation
      JOINT LeftFoot
      {
        OFFSET 17.9705 -0.000410316 0
        CHANNELS 6 Xposition Yposition Zposition Zrotation Xrotation Yrotation
        JOINT LeftToe
        {
          OFFSET 6.72703 11.0288 -1.90628e-05
          CHANNELS 6 Xposition Yposition Zposition Zrotation Xrotation Yrotation
          End Site
          {
            OFFSET 0 0 0
          }
        }
      }
    }
  }
  JOINT RightUpLeg
  {
    OFFSET -1.76546 0.414069 -32.1766
    CHANNELS 6 Xposition Yposition Zposition Zrotation Xrotation Yrotation
    JOINT RightLeg
    {
      OFFSET 28.0784 0.00200947 0
      CHANNELS 6 Xposition Yposition Zposition Zrotation Xrotation Yrotation
      JOINT RightFoot
      {
        OFFSET 17.9705 -0.00309221 2.3816e-05
        CHANNELS 6 Xposition Yposition Zposition Zrotation Xrotation Yrotation
        JOINT RightToe
        {
          OFFSET 6.72693 11.0289 0.0004195
          CHANNELS 6 Xposition Yposition Zposition Zrotation Xrotation Yrotation
          End Site
          {
            OFFSET 0 0 0
          }
        }
      }
    }
  }
}
MOTION
Frames:	4
Frame Time:	0.0333333
-1.82024 39.1973 137.619 -126.506 78.0992 -147.477 12.2926 6.90117e-06 -3.30633e-06 18.7197 -5.77798 7.24999 19.4953 -0.0133243 -9.45561e-06 -14.134 -6.95082 4.29188 20.5878 -0.000902436 -1.90321e-06 -2.98747 -19.4424 1.45523 25.3216 -12.3262 14.3928 178.909 6.19979 -95.6388 29.1658 -3.14066e-06 -0.0117178 -24.4366 -17.0719 36.7855 34.2728 -1.30338e-06 -2.93371e-06 -48.7838 -0.925324 -4.73203 27.0039 0.000513223 0.00137274 102.925 -62.1948 122.99 33.3143 -4.47577 5.07737e-05 35.4585 17.4517 -18.8778 25.2276 -9.82297e-06 6.91628e-05 -10.6856 -8.01175 -10.1802 25.3216 -12.3265 -14.3925 -177.544 21.1813 83.9351 29.1709 0.000284558 0.00121801 -12.0698 9.88196 -40.2012 34.2723 0.000166293 1.65921e-06 -27.8568 -53.9598 -22.5768 27.0066 -0.00359229 0.000644995 23.5251 56.0175 -12.9364 -1.76553 0.414317 32.1765 58.9466 9.4854 -163.298 28.0781 0.000270984 5.13876e-07 -36.6341 11.6813 8.56163 17.9705 -0.000408045 9.22928e-07 -26.136 -9.02205 -29.0697 6.72703 11.0288 -1.84512e-05 89.9997 -0.000210803 9.03522e-05 -1.76546 0.414069 -32.1766 -69.9044 10.9238 164.42 28.0785 0.00199868 -4.55729e-06 -22.7182 36.4744 13.9774 17.9705 -0.00308241 2.29883e-05 -11.6478 0.783094 -6.33958 6.72693 11.0289 0.000415374 89.9999 0.00151377 -0.00697524 
-5.17251 34.2516 149.158 -131.294 78.2394 -146.565 12.2926 6.90117e-06 -3.30633e-06 20.1091 -3.7839 12.0283 19.4953 -0.0133243 -9.45561e-06 -13.0575 -5.87088 5.23413 20.5878 -0.000902436 -1.90321e-06 -2.68534 -17.8932 2.46575 25.3216 -12.3262 14.3928 179.067 3.58778 -94.166 29.1658 -3.14066e-06 -0.0117178 -20.1004 -14.8847 38.9536 34.2728 -1.30338e-06 -2.93371e-06 -46.1211 10.1501 7.31945 27.0039 0.000513223 0.00137274 99.839 -62.1695 121.733 33.3143 -4.47577 5.07737e-05 32.2447 14.9782 -19.4698 25.2276 -9.82297e-06 6.91628e-05 -11.8144 -7.5925 -10.1942 25.3216 -12.3265 -14.3925 -177.25 19.6888 85.5864 29.1709 0.000284558 0.00121801 -12.4151 10.3805 -41.8427 34.2723 0.000166293 1.65921e-06 -28.8627 -44.0484 -20.2329 27.0066 -0.00359229 0.000644995 29.7511 55.5117 -17.6865 -1.76553 0.414317 32.1765 58.9183 17.123 -150.152 28.0781 0.000270984 5.13876e-07 -41.0977 -2.35077 -2.04913 17.9705 -0.000408045 9.22928e-07 -31.0534 16.8111 -5.93848 6.72703 11.0288 -1.84512e-05 89.9999 -0.000166555 0.000150974 -1.76546 0.414069 -32.1766 -69.5164 7.90883 168.624 28.0785 0.00199868 -4.55729e-06 -38.307 35.792 24.7972 17.9705 -0.00308241 2.29883e-05 2.95977 3.56185 -11.6213 6.72693 11.0289 0.000415374 89.9999 0.00152947 -0.00696532 
-7.24492 29.0081 160.696 -138.195 79.0776 -140.304 12.2926 6.90117e-06 -3.30633e-06 19.7795 -2.48657 11.6249 19.4953 -0.0133243 -9.45561e-06 -13.4558 -4.57433 5.86964 20.5878 -0.000902436 -1.90321e-06 -2.55795 -15.0294 3.26399 25.3216 -12.3262 14.3928 179.294 0.790988 -91.8556 29.1658 -3.14066e-06 -0.0117178 -15.4762 -12.4104 41.6475 34.2728 -1.30338e-06 -2.93371e-06 -44.2347 25.5668 20.4366 27.0039 0.000513223 0.00137274 96.7367 -62.2258 118.306 33.3143 -4.47577 5.07737e-05 33.6863 10.4311 -18.6071 25.2276 -9.82297e-06 6.91628e-05 -14.6562 -6.94605 -10.0474 25.3216 -12.3265 -14.3925 -177.371 18.0441 87.4134 29.1709 0.000284558 0.00121801 -13.5353 11.5164 -43.8725 34.2723 0.000166293 1.65921e-06 -29.4103 -34.9354 -17.0115 27.0066 -0.00359229 0.000644995 36.5536 54.4581 -23.2409 -1.76553 0.414317 32.1765 60.3468 22.0063 -143.018 28.0781 0.000270984 5.13876e-07 -52.4879 -3.40646 -4.42608 17.9705 -0.000408045 9.22928e-07 -27.5636 39.5671 5.03926 6.72703 11.0288 -1.84512e-05 90 -0.000149759 0.000187504 -1.76546 0.414069 -32.1766 -77.6249 12.4056 164.61 28.0785 0.00199868 -4.55729e-06 -75.6087 15.7593 46.6281 17.9705 -0.00308241 2.29883e-05 15.1261 5.42726 -18.9698 6.72693 11.0289 0.000415374 89.9998 0.00145848 -0.00707395 
-8.07422 27.0392 172.235 -150.483 80.5596 -123.315 12.2926 6.90117e-06 -3.30633e-06 18.7423 -1.8394 8.15548 19.4953 -0.0133243 -9.45561e-06 -14.5028 -3.19219 6.25755 20.5878 -0.000902436 -1.90321e-06 -2.59503 -11.3946 3.84088 25.3216 -12.3262 14.3928 179.609 -2.28507 -89.3028 29.1658 -3.14066e-06 -0.0117178 -11.1459 -9.75369 43.6118 34.2728 -1.30338e-06 -2.93371e-06 -45.8216 42.9863 33.7361 27.0039 0.000513223 0.00137274 93.3008 -62.7617 113.821 33.3143 -4.47577 5.07737e-05 37.0068 3.90403 -19.0441 25.2276 -9.82297e-06 6.91628e-05 -17.338 -6.5114 -9.46596 25.3216 -12.3265 -14.3925 -177.669 15.9067 89.3265 29.1709 0.000284558 0.00121801 -15.5174 13.3061 -45.6689 34.2723 0.000166293 1.65921e-06 -30.3442 -26.1184 -13.4272 27.0066 -0.00359229 0.000644995 42.8011 54.9753 -29.3673 -1.76553 0.414317 32.1765 53.8265 15.6117 -149.776 28.0781 0.000270984 5.13876e-07 -73.9814 2.54714 8.79917 17.9705 -0.000408045 9.22928e-07 1.76947 43.5404 -14.2024 6.72703 11.0288 -1.84512e-05 90 -0.000170427 0.000152713 -1.76546 0.414069 -32.1766 -82.7942 14.8115 163.224 28.0785 0.00199868 -4.55729e-06 -96.2089 -6.77636 47.3218 17.9705 -0.00308241 2.29883e-05 24.5217 9.89496 -25.1892 6.72693 11.0289 0.000415374 89.9999 0.00152867 -0.00697559 
